# Blender 4.1.1
# www.blender.org
mtllib yellow_part.mtl
o yellow_part
v 0.030689 -0.046780 0.003250
v -0.044014 -0.046780 0.003250
v 0.024189 -0.046780 -0.003250
v -0.044014 -0.046780 -0.003250
v -0.062514 0.046220 -0.003250
v -0.062514 -0.046780 -0.003250
v -0.062514 0.046220 0.003250
v -0.062514 -0.046780 0.003250
v 0.062486 0.046220 -0.003250
v 0.062486 0.046220 0.003250
v -0.062514 0.046220 0.003250
v 0.062486 -0.046780 -0.003250
v 0.062486 -0.046780 0.003250
v 0.062486 0.046220 0.003250
v 0.034088 -0.046780 -0.003250
v 0.040588 -0.046780 0.003250
v 0.062486 -0.046780 0.003250
v -0.044014 -0.000280 -0.003250
v -0.044014 -0.000280 0.003250
v -0.044014 -0.046780 0.003250
v -0.051014 -0.000280 -0.003250
v -0.051014 -0.000280 0.003250
v -0.044014 -0.000280 0.003250
v -0.051014 -0.046780 -0.003250
v -0.051014 -0.046780 0.003250
v -0.051014 -0.000280 0.003250
v -0.062514 -0.046780 0.003250
v -0.051014 -0.046780 0.003250
v 0.024189 -0.006780 -0.003250
v 0.034088 -0.006780 -0.003250
v 0.030689 -0.046780 0.003250
v 0.040588 -0.046780 0.003250
v 0.040588 -0.006780 0.003250
v 0.030689 -0.006780 0.003250
v 0.030689 -0.006780 0.003250
v 0.030689 -0.046780 0.003250
v 0.040588 -0.006780 0.003250
v 0.040588 -0.046780 0.003250
v 0.030689 -0.006780 0.003250
vn -0.0000 -1.0000 -0.0000
vn 0.2971 -0.6303 -0.7173
vn -0.5774 -0.5774 -0.5773
vn -0.5774 0.5774 -0.5773
vn -0.7071 -0.0000 0.7071
vn 0.5774 0.5774 -0.5773
vn -0.0000 1.0000 -0.0000
vn 0.5774 -0.5773 -0.5774
vn 0.7071 -0.0000 0.7071
vn -0.7735 -0.5469 -0.3203
vn -0.3015 -0.3015 -0.9045
vn -0.3162 -0.0000 0.9487
vn 0.3015 -0.3015 -0.9045
vn 0.3162 -0.0000 0.9487
vn 0.1857 -0.1313 -0.9738
vn -0.2499 -0.5301 -0.8103
vn -0.0000 -0.0000 1.0000
vn -0.0000 -0.1644 0.9864
vn 0.7071 -0.0000 -0.7071
s 1
usemtl Material.001
f 1//1 2//1 3//2
f 3//2 2//1 4//3
f 5//4 6//3 7//5
f 7//5 6//3 8//5
f 9//6 5//4 10//7
f 10//7 5//4 11//7
f 12//8 9//6 13//9
f 13//9 9//6 14//9
f 15//10 12//8 16//1
f 16//1 12//8 17//1
f 18//11 4//3 19//12
f 19//12 4//3 20//5
f 21//13 18//11 22//1
f 22//1 18//11 23//1
f 24//8 21//13 25//9
f 25//9 21//13 26//14
f 6//3 24//8 27//1
f 27//1 24//8 28//1
f 29//15 5//4 30//16
f 30//16 5//4 9//6
f 30//16 9//6 15//10
f 15//10 9//6 12//8
f 24//8 6//3 21//13
f 21//13 6//3 5//4
f 21//13 5//4 18//11
f 18//11 5//4 29//15
f 18//11 29//15 4//3
f 4//3 29//15 3//2
f 19//12 20//5 31//17
f 32//17 13//9 33//18
f 33//18 13//9 14//9
f 33//18 14//9 34//17
f 34//17 14//9 7//5
f 31//17 34//17 19//12
f 19//12 34//17 7//5
f 19//12 7//5 26//14
f 26//14 7//5 8//5
f 26//14 8//5 25//9
f 29//15 35//19 3//2
f 3//2 35//19 36//19
f 37//5 30//16 38//5
f 38//5 30//16 15//10
f 33//18 39//1 30//16
f 30//16 39//1 29//15
