# Blender 4.1.1
# www.blender.org
mtllib yellow_part.mtl
o yellow_part
v -0.030703 -0.046500 -0.003250
v 0.044000 -0.046500 -0.003250
v -0.024203 -0.046500 0.003250
v 0.044000 -0.046500 0.003250
v 0.062500 0.046500 0.003250
v 0.062500 -0.046500 0.003250
v 0.062500 0.046500 -0.003250
v 0.062500 -0.046500 -0.003250
v -0.062500 0.046500 0.003250
v -0.062500 0.046500 -0.003250
v 0.062500 0.046500 -0.003250
v -0.062500 -0.046500 0.003250
v -0.062500 -0.046500 -0.003250
v -0.062500 0.046500 -0.003250
v -0.034102 -0.046500 0.003250
v -0.040602 -0.046500 -0.003250
v -0.062500 -0.046500 -0.003250
v 0.044000 0.000000 0.003250
v 0.044000 0.000000 -0.003250
v 0.044000 -0.046500 -0.003250
v 0.051000 0.000000 0.003250
v 0.051000 0.000000 -0.003250
v 0.044000 0.000000 -0.003250
v 0.051000 -0.046500 0.003250
v 0.051000 -0.046500 -0.003250
v 0.051000 0.000000 -0.003250
v 0.062500 -0.046500 -0.003250
v 0.051000 -0.046500 -0.003250
v -0.024203 -0.006500 0.003250
v -0.034102 -0.006500 0.003250
v -0.030703 -0.046500 -0.003250
v -0.040602 -0.046500 -0.003250
v -0.040602 -0.006500 -0.003250
v -0.030703 -0.006500 -0.003250
v -0.030703 -0.006500 -0.003250
v -0.030703 -0.046500 -0.003250
v -0.040602 -0.006500 -0.003250
v -0.040602 -0.046500 -0.003250
v -0.030703 -0.006500 -0.003250
vn -0.0000 -1.0000 -0.0000
vn 1.0000 -0.0000 -0.0000
vn -0.0000 1.0000 -0.0000
vn -1.0000 -0.0000 -0.0000
vn -0.0000 -0.0000 1.0000
vn -0.0000 -0.0000 -1.0000
vn -0.0000 -0.1644 -0.9864
vn -0.0789 -0.1442 -0.9864
vn -0.0628 0.1519 -0.9864
vn -0.7071 -0.0000 0.7071
vn 0.7071 -0.0000 -0.7071
vt 0.032548 0.625930
vt 0.032548 1.000000
vt 0.000000 0.658478
vt 0.000000 1.000000
vt 0.996480 0.000000
vt 0.996480 0.465692
vt 0.963932 -0.000000
vt 0.963932 0.465692
vt 0.963932 -0.000000
vt 0.963931 0.625929
vt 0.931383 -0.000000
vt 0.931383 0.625929
vt 0.996480 0.465692
vt 0.996480 0.931383
vt 0.963932 0.465692
vt 0.963932 0.931383
vt 0.162742 0.625930
vt 0.162742 0.768131
vt 0.130193 0.658478
vt 0.130193 0.768131
vt 0.065097 0.625929
vt 0.065097 0.858775
vt 0.032548 0.625929
vt 0.032548 0.858775
vt 0.260387 0.625929
vt 0.260387 0.660982
vt 0.227838 0.625929
vt 0.227838 0.660982
vt 0.097645 0.625929
vt 0.097645 0.858775
vt 0.065097 0.625929
vt 0.065097 0.858775
vt 0.227838 0.625929
vt 0.227838 0.683515
vt 0.195290 0.625929
vt 0.195290 0.683515
vt 0.200297 0.434160
vt 0.465692 0.000000
vt 0.200297 0.483728
vt 0.465692 0.625929
vt 0.000000 0.483728
vt -0.000000 0.625929
vt 0.000000 0.057585
vt 0.000000 -0.000000
vt 0.232846 0.057586
vt 0.232846 0.092638
vt 0.000000 0.092638
vt 0.000000 0.434160
vt 0.698537 0.533292
vt 0.465692 0.533292
vt 0.465692 0.159221
vt 0.465692 0.109653
vt 0.465692 -0.000000
vt 0.665989 0.109653
vt 0.931383 0.000000
vt 0.665989 0.159221
vt 0.698537 0.568344
vt 0.465692 0.625929
vt 0.465692 0.568344
vt 0.200297 0.466708
vt 0.000000 0.466708
vt 0.097645 0.625929
vt 0.130193 0.625929
vt 0.097645 0.826227
vt 0.130193 0.826227
vt 0.162742 0.708046
vt 0.162742 0.658478
vt 0.195290 0.675498
vt 0.195290 0.625929
s 0
usemtl Material.001
f 1/1/1 2/2/1 3/3/1
f 3/3/1 2/2/1 4/4/1
f 5/5/2 6/6/2 7/7/2
f 7/7/2 6/6/2 8/8/2
f 9/9/3 5/10/3 10/11/3
f 10/11/3 5/10/3 11/12/3
f 12/13/4 9/14/4 13/15/4
f 13/15/4 9/14/4 14/16/4
f 15/17/1 12/18/1 16/19/1
f 16/19/1 12/18/1 17/20/1
f 18/21/2 4/22/2 19/23/2
f 19/23/2 4/22/2 20/24/2
f 21/25/1 18/26/1 22/27/1
f 22/27/1 18/26/1 23/28/1
f 24/29/4 21/30/4 25/31/4
f 25/31/4 21/30/4 26/32/4
f 6/33/1 24/34/1 27/35/1
f 27/35/1 24/34/1 28/36/1
f 29/37/5 5/38/5 30/39/5
f 30/39/5 5/38/5 9/40/5
f 30/39/5 9/40/5 15/41/5
f 15/41/5 9/40/5 12/42/5
f 24/43/5 6/44/5 21/45/5
f 21/45/5 6/44/5 5/38/5
f 21/45/5 5/38/5 18/46/5
f 18/46/5 5/38/5 29/37/5
f 18/46/5 29/37/5 4/47/5
f 4/47/5 29/37/5 3/48/5
f 19/49/6 20/50/6 31/51/6
f 32/52/6 13/53/6 33/54/7
f 33/54/8 13/53/6 14/55/6
f 33/54/9 14/55/6 34/56/6
f 34/56/6 14/55/6 7/12/6
f 31/51/6 34/56/6 19/49/6
f 19/49/6 34/56/6 7/12/6
f 19/49/6 7/12/6 26/57/6
f 26/57/6 7/12/6 8/58/6
f 26/57/6 8/58/6 25/59/6
f 29/37/10 35/60/10 3/48/10
f 3/48/10 35/60/10 36/61/10
f 37/62/11 30/63/11 38/64/11
f 38/64/11 30/63/11 15/65/11
f 33/66/7 39/67/1 30/68/1
f 30/68/1 39/67/1 29/69/1
