# Blender 4.1.1
# www.blender.org
mtllib purple_part.mtl
o purple_part
v 0.070000 -0.041430 -0.003251
v 0.060000 -0.041430 -0.003251
v 0.060000 -0.001430 -0.003251
v 0.070000 0.030570 -0.003251
v 0.053000 -0.001430 -0.003251
v -0.070000 0.030570 -0.003251
v -0.060000 -0.041430 -0.003251
v -0.070000 -0.041430 -0.003251
v -0.060000 -0.001430 -0.003251
v -0.053000 -0.001430 -0.003251
v -0.053000 -0.041430 -0.003251
v 0.053000 -0.041430 -0.003251
v -0.070000 0.030570 0.000249
v -0.070000 0.030570 -0.003251
v -0.070000 0.038570 0.003249
v -0.070000 0.038570 -0.003251
v -0.070000 0.033570 -0.003251
v -0.070000 0.033570 0.000249
v -0.070000 -0.041430 0.003249
v 0.070000 0.038570 -0.003251
v -0.070000 0.038570 -0.003251
v 0.070000 0.038570 0.003249
v -0.070000 0.038570 0.003249
v 0.070000 0.033570 -0.003251
v 0.070000 0.033570 0.000249
v 0.070000 0.030570 0.000249
v 0.070000 -0.041430 0.003249
v 0.060000 -0.041430 0.003249
v 0.060000 -0.001430 0.003249
v 0.053000 -0.001430 0.003249
v 0.060000 -0.001430 0.003249
v 0.053000 -0.041430 0.003249
v 0.053000 -0.001430 0.003249
v -0.053000 -0.041430 0.003249
v -0.053000 -0.001430 0.003249
v -0.060000 -0.001430 0.003249
v -0.060000 -0.041430 0.003249
v -0.070000 -0.041430 -0.003251
v -0.070000 -0.041430 0.003249
v -0.070000 -0.041430 0.003249
v -0.060000 -0.041430 0.003249
v -0.060000 -0.001430 0.003249
v -0.053000 -0.001430 0.003249
v 0.070000 0.038570 0.003249
v -0.070000 0.038570 0.003249
v 0.060000 -0.041430 0.003249
v 0.070000 -0.041430 0.003249
v 0.053000 -0.041430 0.003249
v -0.053000 -0.041430 0.003249
v -0.070000 0.030570 0.000249
v -0.070000 0.033570 0.000249
vn 0.5774 -0.5774 -0.5773
vn -0.5773 -0.5774 -0.5774
vn -0.3015 -0.3015 -0.9045
vn 0.5774 0.5774 -0.5773
vn 0.3015 -0.3015 -0.9045
vn -0.0000 0.7071 -0.7071
vn 0.5773 -0.5774 -0.5773
vn -0.7071 -0.0000 -0.7071
vn -0.5774 -0.5774 -0.5773
vn -1.0000 -0.0000 -0.0000
vn -0.5774 -0.5773 -0.5773
vn 0.5774 0.5773 -0.5774
vn 0.7071 0.7071 -0.0000
vn -0.0000 1.0000 -0.0000
vn 0.9045 -0.3015 -0.3015
vn 0.9045 0.3015 -0.3015
vn 0.7071 -0.7071 -0.0000
vn -0.7071 -0.7071 -0.0000
vn -0.0000 -0.3162 0.9487
vn 1.0000 -0.0000 -0.0000
vn -0.0000 -1.0000 -0.0000
vn -0.0000 -0.0000 1.0000
vn -0.0000 -0.7071 -0.7071
s 1
usemtl Material.001
f 1//1 2//2 3//3
f 1//1 3//3 4//4
f 4//4 3//3 5//5
f 4//4 5//5 6//6
f 7//7 8//8 9//5
f 9//5 8//8 6//6
f 9//5 6//6 10//3
f 10//3 6//6 5//5
f 10//3 5//5 11//9
f 11//9 5//5 12//7
f 13//10 14//10 8//8
f 15//10 16//10 17//11
f 17//11 18//10 15//10
f 15//10 18//10 13//10
f 15//10 13//10 19//10
f 19//10 13//10 8//8
f 20//12 21//6 22//13
f 22//13 21//6 23//14
f 24//7 20//12 25//15
f 25//15 20//12 22//13
f 25//15 22//13 26//16
f 26//16 22//13 27//17
f 26//16 27//17 4//4
f 4//4 27//17 1//1
f 2//2 1//1 28//18
f 28//18 1//1 27//17
f 3//3 2//2 29//10
f 29//10 2//2 28//18
f 5//5 3//3 30//19
f 30//19 3//3 31//19
f 12//7 5//5 32//17
f 32//17 5//5 33//20
f 11//9 12//7 34//18
f 34//18 12//7 32//17
f 10//3 11//9 35//18
f 35//18 11//9 34//18
f 9//5 10//3 36//17
f 36//17 10//3 35//18
f 7//7 9//5 37//17
f 37//17 9//5 36//17
f 38//21 7//7 39//21
f 39//21 7//7 37//17
f 21//6 20//12 17//11
f 17//11 20//12 24//7
f 40//22 41//22 42//22
f 43//22 44//22 42//22
f 42//22 44//22 45//22
f 42//22 45//22 40//22
f 46//22 47//22 31//19
f 31//19 47//22 44//22
f 31//19 44//22 30//19
f 30//19 44//22 43//22
f 30//19 43//22 48//22
f 48//22 43//22 49//22
f 50//6 26//16 6//6
f 6//6 26//16 4//4
f 25//15 51//23 24//7
f 24//7 51//23 17//11
f 25//15 26//16 51//23
f 51//23 26//16 50//6
